<?xml version="1.0" encoding="utf-8"?>
<!-- Generator: Adobe Illustrator 16.0.0, SVG Export Plug-In . SVG Version: 6.00 Build 0)  -->
<!DOCTYPE svg PUBLIC "-//W3C//DTD SVG 1.1//EN" "http://www.w3.org/Graphics/SVG/1.1/DTD/svg11.dtd">
<svg version="1.1" xmlns="http://www.w3.org/2000/svg" xmlns:xlink="http://www.w3.org/1999/xlink" x="0px" y="0px" width="640px"
	 height="480px" viewBox="0 0 640 480" enable-background="new 0 0 640 480" xml:space="preserve">
<g id="Layer_2">
	<g id="XMLID_1_">
		<g>
			<path fill="#3C887E" d="M403.17,208.79c0.16,17.54,0.37,75.59,0.061,85.71c-12.48,0.15-67.73,0-67.73,0s0.42,2.98-0.42,4
				c-0.91,1.12-22.71,1.45-23.5,0.25c-0.61-0.93-0.38-4.45-0.38-4.45s-60.02-0.13-68.67-0.59c-0.03-10.71,0.97-85.21,0.97-85.21
				h6.28c0.05,24.1,0.14,74.41-0.03,79.58c31.47-6.73,74,4.66,74,4.66s0.41-0.09,1.19-0.24c7.529-1.48,49.05-9.17,71.06-3
				c-0.03-8.15,0.13-57.11,0.2-80.75h0.01C398.3,208.63,401,208.68,403.17,208.79z"/>
			<path fill="#F9EADF" d="M396.25,196c0,0-0.02,5.02-0.05,12.75c-0.07,23.64-0.23,72.6-0.2,80.75c-22.01-6.17-63.53,1.52-71.06,3
				l-0.2-1.14c5.189-3.29,30.109-17.841,58.89-13.69c0.16-13.15,0.64-60.76,0.851-81.34h0.1C389.08,194.87,396.25,196,396.25,196z"
				/>
			<path fill="#F9EADF" d="M323,205.5c2.48-3,28.33-22.83,61.58-18.75c0,0-0.04,3.68-0.1,9.58c-0.211,20.58-0.69,68.189-0.851,81.34
				c-28.78-4.15-53.7,10.4-58.89,13.69c-0.65,0.409-0.99,0.649-0.99,0.649s-30.67-20.68-62-14.51c-0.02-12.05-0.65-60.58-0.5-82.17
				c0.03-3.95,0.08-6.99,0.17-8.75C300.75,183.33,323,205.5,323,205.5z"/>
			<path fill="#F9EADF" d="M249.78,208.5c-0.02-7.72-0.03-12.75-0.03-12.75s5.33-1.58,11.5-0.42c-0.15,21.59,0.48,70.12,0.5,82.17
				c31.33-6.17,62,14.51,62,14.51s0.34-0.24,0.99-0.649l0.2,1.14c-0.78,0.15-1.19,0.24-1.19,0.24s-42.53-11.391-74-4.66
				C249.92,282.91,249.83,232.6,249.78,208.5z"/>
		</g>
		<g>
			<path fill="none" stroke="#000000" stroke-width="2" stroke-miterlimit="10" d="M250,208.5h-0.22h-6.28c0,0-1,74.5-0.97,85.21
				c8.65,0.46,68.67,0.59,68.67,0.59s-0.23,3.521,0.38,4.45c0.79,1.2,22.59,0.87,23.5-0.25c0.84-1.02,0.42-4,0.42-4
				s55.25,0.15,67.73,0c0.31-10.12,0.1-68.17-0.061-85.71c-2.17-0.11-4.87-0.16-6.96-0.04"/>
			<path fill="none" stroke="#000000" stroke-width="2" stroke-miterlimit="10" d="M261.25,195.33c-6.17-1.16-11.5,0.42-11.5,0.42
				s0.01,5.03,0.03,12.75c0.05,24.1,0.14,74.41-0.03,79.58c31.47-6.73,74,4.66,74,4.66s0.41-0.09,1.19-0.24
				c7.529-1.48,49.05-9.17,71.06-3c-0.03-8.15,0.13-57.11,0.2-80.75c0.03-7.73,0.05-12.75,0.05-12.75s-7.17-1.13-11.67,0.33"/>
			<path fill="none" stroke="#000000" stroke-width="2" stroke-miterlimit="10" d="M323,205.5c2.48-3,28.33-22.83,61.58-18.75
				c0,0-0.04,3.68-0.1,9.58c-0.211,20.58-0.69,68.189-0.851,81.34c-28.78-4.15-53.7,10.4-58.89,13.69
				c-0.65,0.409-0.99,0.649-0.99,0.649s-30.67-20.68-62-14.51c-0.02-12.05-0.65-60.58-0.5-82.17c0.03-3.95,0.08-6.99,0.17-8.75
				C300.75,183.33,323,205.5,323,205.5z"/>
			<path fill="none" stroke="#000000" stroke-width="2" stroke-miterlimit="10" d="M323.16,267.33c0.2,16.52,0.49,18.18,0.59,24.09"
				/>
			<path fill="none" stroke="#000000" stroke-width="2" stroke-miterlimit="10" d="M323,205.5c0,3,0.25,10.88,0.33,16.25"/>
		</g>
	</g>
</g>
<g id="Layer_3">
	<rect x="267.25" y="223.25" fill="none" width="113.25" height="51.75"/>
	<text transform="matrix(1 0 0 1 273.605 251.8896)" font-family="'ArialMT'" font-size="40" letter-spacing="1">librys</text>
</g>
</svg>
